<svg width="140" height="200" viewBox="0 0 140 200" fill="none" xmlns="http://www.w3.org/2000/svg">
<path d="M100 0C86.8678 -1.566e-07 73.8642 2.58658 61.7317 7.61205C49.5991 12.6375 38.5752 20.0035 29.2893 29.2893C20.0035 38.5752 12.6375 49.5991 7.61205 61.7317C2.58658 73.8642 -4.17426e-07 86.8678 0 100C4.17426e-07 113.132 2.58658 126.136 7.61205 138.268C12.6375 150.401 20.0035 161.425 29.2893 170.711C38.5752 179.997 49.5991 187.362 61.7317 192.388C73.8642 197.413 86.8678 200 100 200V163.074C91.717 163.074 83.5151 161.442 75.8626 158.273C68.2102 155.103 61.2569 150.457 55.4 144.6C49.543 138.743 44.897 131.79 41.7273 124.137C38.5575 116.485 36.926 108.283 36.926 100C36.926 91.717 38.5575 83.5151 41.7273 75.8626C44.897 68.2102 49.543 61.2569 55.4 55.4C61.2569 49.543 68.2102 44.897 75.8626 41.7273C83.5151 38.5575 91.717 36.926 100 36.926V0Z" fill="#FBBF25"/>
<path d="M96.6509 58.6109C97.7488 54.7289 103.251 54.7289 104.349 58.6109L109.85 78.063C110.439 80.1471 112.58 81.3835 114.68 80.8524L134.172 75.9217C138.068 74.936 140.822 79.6683 138.039 82.5686L123.974 97.2309C122.489 98.7785 122.489 101.222 123.974 102.769L138.039 117.431C140.822 120.332 138.068 125.064 134.172 124.078L114.68 119.148C112.58 118.616 110.439 119.853 109.85 121.937L104.349 141.389C103.251 145.271 97.7488 145.271 96.6509 141.389L91.15 121.937C90.5607 119.853 88.4197 118.616 86.32 119.148L66.8281 124.078C62.9317 125.064 60.1783 120.332 62.9607 117.431L77.0264 102.769C78.511 101.222 78.511 98.7785 77.0264 97.2309L62.9607 82.5686C60.1783 79.6683 62.9317 74.936 66.8281 75.9217L86.32 80.8524C88.4197 81.3835 90.5607 80.1471 91.15 78.063L96.6509 58.6109Z" fill="#FBBF25"/>
</svg>
