<svg width="150" height="150" viewBox="0 0 150 150" fill="none" xmlns="http://www.w3.org/2000/svg">
<path d="M0 6C0 2.6863 2.68629 0 6 0H144C147.314 0 150 2.68629 150 6V144C150 147.314 147.314 150 144 150H6C2.6863 150 0 147.314 0 144V6Z" fill="url(#paint0_linear_1_18)"/>
<path d="M92.0461 19C84.686 19 77.398 20.4485 70.5982 23.2627C63.7984 26.077 57.6199 30.2019 52.4155 35.402C47.2112 40.6021 43.0828 46.7755 40.2663 53.5697C37.4497 60.364 36 67.646 36 75C36 82.354 37.4497 89.636 40.2663 96.4303C43.0828 103.225 47.2112 109.398 52.4155 114.598C57.6199 119.798 63.7984 123.923 70.5982 126.737C77.398 129.552 84.6861 131 92.0461 131V110.321C87.4038 110.321 82.807 109.408 78.5181 107.633C74.2292 105.858 70.3321 103.256 67.0495 99.976C63.7669 96.6961 61.163 92.8023 59.3865 88.5169C57.61 84.2315 56.6956 79.6385 56.6956 75C56.6956 70.3615 57.61 65.7685 59.3865 61.4831C61.163 57.1977 63.7669 53.3039 67.0495 50.024C70.3321 46.7441 74.2292 44.1423 78.5181 42.3673C82.807 40.5922 87.4038 39.6786 92.0461 39.6786V19Z" fill="#FBBF25"/>
<path d="M90.1691 51.8221C90.7844 49.6482 93.8683 49.6482 94.4836 51.8221L97.5667 62.7153C97.897 63.8824 99.0969 64.5748 100.274 64.2774L111.198 61.5162C113.382 60.9642 114.925 63.6142 113.366 65.2384L105.482 73.4493C104.65 74.3159 104.65 75.6841 105.482 76.5507L113.366 84.7616C114.925 86.3858 113.382 89.0358 111.198 88.4838L100.274 85.7227C99.0969 85.4252 97.897 86.1176 97.5667 87.2847L94.4836 98.1779C93.8683 100.352 90.7844 100.352 90.1691 98.1779L87.0861 87.2847C86.7557 86.1176 85.5558 85.4252 84.379 85.7226L73.4546 88.4838C71.2708 89.0358 69.7276 86.3858 71.287 84.7616L79.1703 76.5507C80.0024 75.6841 80.0024 74.3159 79.1703 73.4493L71.287 65.2384C69.7276 63.6142 71.2708 60.9642 73.4546 61.5162L84.379 64.2773C85.5558 64.5748 86.7558 63.8824 87.0861 62.7153L90.1691 51.8221Z" fill="#FBBF25"/>
<defs>
<linearGradient id="paint0_linear_1_18" x1="144" y1="3.74317e-07" x2="5" y2="157" gradientUnits="userSpaceOnUse">
<stop stop-color="#222222"/>
<stop offset="1" stop-color="#313131" stop-opacity="0"/>
</linearGradient>
</defs>
</svg>
